<?xml version="1.0" encoding="UTF-8" standalone="no"?>
<!-- Created with Inkscape (http://www.inkscape.org/) -->

<svg
   width="414.50598mm"
   height="414.50598mm"
   viewBox="0 0 414.50598 414.50599"
   version="1.1"
   id="svg1"
   inkscape:version="1.3.2 (091e20e, 2023-11-25, custom)"
   sodipodi:docname="lemur_sotm.svg"
   inkscape:export-filename="lemur_mada.png"
   inkscape:export-xdpi="96"
   inkscape:export-ydpi="96"
   xmlns:inkscape="http://www.inkscape.org/namespaces/inkscape"
   xmlns:sodipodi="http://sodipodi.sourceforge.net/DTD/sodipodi-0.dtd"
   xmlns="http://www.w3.org/2000/svg"
   xmlns:svg="http://www.w3.org/2000/svg">
  <sodipodi:namedview
     id="namedview1"
     pagecolor="#505050"
     bordercolor="#ffffff"
     borderopacity="1"
     inkscape:showpageshadow="0"
     inkscape:pageopacity="0"
     inkscape:pagecheckerboard="1"
     inkscape:deskcolor="#d1d1d1"
     inkscape:document-units="mm"
     inkscape:zoom="0.2841821"
     inkscape:cx="893.7931"
     inkscape:cy="650.99104"
     inkscape:window-width="1600"
     inkscape:window-height="830"
     inkscape:window-x="-6"
     inkscape:window-y="-6"
     inkscape:window-maximized="1"
     inkscape:current-layer="layer1"
     showgrid="false" />
  <defs
     id="defs1">
    <rect
       x="476.49359"
       y="357.05917"
       width="258.7746"
       height="189.10451"
       id="rect5" />
  </defs>
  <g
     inkscape:label="Calque 1"
     inkscape:groupmode="layer"
     id="layer1"
     transform="translate(63.675186,43.682999)">
    <circle
       style="fill:#1a584b;fill-opacity:1;stroke:#ffffff;stroke-width:20;stroke-linecap:round;stroke-linejoin:round;stroke-dasharray:none;stroke-dashoffset:0;stroke-opacity:1"
       id="path3"
       cx="143.5778"
       cy="163.56999"
       r="197.25299" />
    <g
       id="g97"
       style="clip-rule:evenodd;fill:#ffffff;fill-rule:evenodd;image-rendering:optimizeQuality;shape-rendering:geometricPrecision;text-rendering:geometricPrecision"
       transform="matrix(0.26458333,0,0,0.26458333,-94.498169,-52.125062)">
      <path
         id="path97"
         style="opacity:1;fill:#ffffff"
         d="m 623.70667,696.42412 c -7.6862,0.0479 -15.52198,1.16143 -22.59782,4.25122 -3.22785,1.87129 -3.77398,7.21999 -0.28766,9.10575 3.3766,1.45059 6.9559,-0.43656 10.38499,-0.79213 9.48775,-1.6555 19.3709,-0.0226 28.23677,3.56311 7.35569,3.10416 13.99169,7.98277 19.16551,14.05803 1.63927,3.45824 6.06067,4.45591 9.29659,2.62587 3.70568,-1.78865 2.55042,-6.96955 0.44822,-9.59482 -2.95039,-3.28978 -6.55492,-5.91665 -9.46344,-9.25345 -5.56615,-5.64913 -12.90991,-9.17323 -20.36,-11.62175 -4.79428,-1.48463 -9.8007,-2.31427 -14.82316,-2.34183 z M 496.5,551.5 c 3.37533,-1.09766 6.59239,1.05854 8.8883,3.33764 4.35736,4.44766 10.54789,6.64373 16.69387,6.81571 4.534,0.14787 9.09894,-0.11395 13.58653,-0.74496 6.03341,-1.23811 11.57736,-4.48341 15.8313,-8.90839 2.29215,-1.18418 6.05611,-0.30128 6.4086,2.5937 0.15323,2.52452 -1.47437,3.63479 -3.49873,5.54453 -7.38162,8.61442 -19.43388,12.12508 -30.53738,11.44903 -4.03626,-0.10352 -8.12167,-0.50917 -11.90676,-2.01755 -7.59611,-2.84564 -13.25367,-8.71609 -16.69598,-16.06971 0.68907,-0.64491 0.58855,-1.30773 1.23025,-2 z m 23,-16 c 5.87801,-0.12508 12.13929,-0.38183 17.47776,2.50331 2.28823,1.89158 0.31116,4.88178 -1.01616,6.71136 -1.96433,3.55485 -4.04788,7.54672 -8.10673,9.0445 -4.02965,0.8775 -6.03461,-1.49188 -7.64729,-4.00826 -2.78053,-3.9108 -5.17684,-6.32158 -6.32597,-10.59811 0.11692,-2.96458 2.15738,-2.96745 5.61839,-3.6528 z m -19.38708,-51.86299 c -10.83626,-0.13222 -20.4199,8.28986 -23.49907,18.37834 -3.96378,12.39501 2.84612,27.41633 15.18997,31.95984 6.98566,2.69995 15.55328,1.35308 20.9,-4.05491 5.23035,-4.9839 8.66411,-11.79984 9.84971,-18.90257 1.16774,-7.52652 -0.98397,-15.74388 -6.64246,-21.03755 -4.12345,-4.12465 -9.91286,-6.69828 -15.79815,-6.34315 z m 1.87695,15.38086 c 7.13298,-1.0442 13.36523,7.42982 10.45945,13.96356 -2.22532,6.82461 -11.71121,9.54208 -17.31498,5.13629 -5.00605,-3.8216 -5.72904,-12.50235 -0.6345,-16.54896 2.15896,-1.58499 4.81867,-2.4616 7.49003,-2.55089 z m 52.41407,-14.77539 c -14.65726,-0.87259 -26.16817,15.34574 -22.10472,29.08669 2.19495,9.27269 8.13176,18.87384 17.60592,21.90634 12.50013,3.41117 25.5561,-6.18509 28.23252,-18.41171 4.29994,-15.1347 -7.53857,-32.75899 -23.73372,-32.58132 z m -1.87695,15.3789 c 7.79289,-0.73725 13.84628,8.6027 9.91025,15.41546 -3.55033,7.51126 -15.81684,7.86391 -19.52172,0.25455 -4.14568,-7.2635 1.06517,-16.25809 9.61147,-15.67001 z m 54.50647,-26.29857 c 0.0175,10.46847 -3.92734,22.97846 -11.53346,30.17719 -4.79043,-4.07502 -4.57654,-11.42022 -3.24931,-17.04288 2.06865,-7.73939 7.9141,-10.84542 14.78277,-13.13431 z M 446.5,475.5 c 7.68497,0.21801 14.72002,6.02755 15.63432,13.79392 0.59747,4.28284 -0.85724,12.18652 -3.55354,13.71835 C 449.17039,497.779 444.84503,484.39965 446.5,475.5 Z m 271.23566,-47.84259 c -19.09937,16.20341 -27.04439,38.3912 -34.17518,61.13278 -5.81736,24.01658 -2.25112,45.19198 9.55374,71.66969 30.92834,42.57004 47.5687,57.44856 64.28245,98.44514 6.96181,24.87493 15.29573,42.3295 10.6305,79.93402 -16.95682,48.9701 -33.37601,64.85795 -70.30308,84.64032 -18.14456,11.72374 -31.4375,21.41223 -51.2218,23.57152 C 620.50668,847.6942 594.49475,847.67669 568.5,847 c 2.07135,-9.55481 4.97077,-10.20834 13.86831,-12.76868 13.7346,-2.80679 44.53374,4.10802 34.63169,-14.73107 -12.78082,-7.81015 -31.43493,-14.89448 -38.82471,-34.84633 -14.06686,-18.78308 5.34034,-42.14603 -3.29862,-58.91087 L 536.5252,844.84098 c -12.40162,6.56855 -26.9369,6.82823 -25.77479,-0.65082 7.43152,-12.72693 17.97539,-6.53159 22.61101,-69.46858 -0.94261,-15.05684 -5.24146,-18.92939 -10.1262,-3.20789 -7.40003,18.51602 -13.39385,73.34769 -31.79343,76.5672 -12.57916,0.80203 -27.67359,1.28495 -17.38396,-11.08589 9.17748,-7.65152 16.22442,-2.31796 18.73464,-24.8456 5.29305,-33.49118 11.9557,-66.60412 3.71106,-106.36756 -14.81011,-28.64524 -19.46096,-56.02605 -13.95226,-90.15936 4.78917,-22.46224 -2.89972,-44.75598 -9.67411,-62.12836 -9.22842,-23.23974 -15.04114,-30.87143 -32.23491,-45.73691 -12.33346,-15.48421 -13.64711,-51.54847 10.08275,-56.20759 17.32407,-1.44333 20.1685,15.65069 44.39002,4.15458 26.15338,-16.60745 58.92466,-11.69551 80.38498,10.7958 13.55921,-18.34817 45.57049,-14.35274 43.41194,11.58984 -4.45913,28.41424 -16.0553,31.56901 -27.35044,46.75066 -3.24099,14.98424 -12.75531,26.73012 -16.0615,40.6595 25.13384,-1.10487 48.75914,11.45073 69.25852,25.11113 17.11135,13.43853 25.45631,21.61626 42.74398,50.40649 8.49002,15.75444 10.54528,23.03819 15.87392,38.20436 6.92957,29.69193 10.88179,63.00532 9.38302,86.99265 14.22984,-6.47013 20.65116,-20.73212 25.47482,-51.81446 5.69882,-67.98489 -86.80787,-119.77964 -90.62424,-202.74052 2.1507,-45.90097 18.34078,-95.6017 60.34618,-118.38019 26.72357,-15.72682 62.13727,-22.35768 72.09118,0.008 3.57911,40.53458 -24.12184,-1.32367 -62.31172,34.37026 z"
         sodipodi:nodetypes="ccccccccccccccccccccccccccccccccccccccccccccccccccccccccccccccccccccccccccccccccccccccccccccccccc" />
    </g>
    <text
       xml:space="preserve"
       style="font-style:normal;font-variant:normal;font-weight:normal;font-stretch:normal;font-size:38.8056px;line-height:0;font-family:'Ink Free';-inkscape-font-specification:'Ink Free, Normal';font-variant-ligatures:normal;font-variant-caps:normal;font-variant-numeric:normal;font-variant-east-asian:normal;letter-spacing:0px;fill:#ffffff;stroke:#ffffff;stroke-width:2;stroke-linecap:round;stroke-linejoin:round;stroke-opacity:1"
       x="22.056074"
       y="243.23059"
       id="text8"><tspan
         sodipodi:role="line"
         id="tspan8"
         style="font-style:normal;font-variant:normal;font-weight:normal;font-stretch:normal;font-size:38.8056px;line-height:0;font-family:'Ink Free';-inkscape-font-specification:'Ink Free, Normal';font-variant-ligatures:normal;font-variant-caps:normal;font-variant-numeric:normal;font-variant-east-asian:normal;letter-spacing:0px;stroke:#ffffff;stroke-width:2;stroke-opacity:1"
         x="22.056074"
         y="243.23059">Madagasikara</tspan></text>
    <text
       xml:space="preserve"
       style="font-style:normal;font-variant:normal;font-weight:normal;font-stretch:normal;font-size:16.9333px;font-family:Pragmata;-inkscape-font-specification:Pragmata;letter-spacing:1.32292px;fill:#ffffff;fill-opacity:1;stroke:none;stroke-width:2;stroke-linecap:round;stroke-linejoin:round"
       x="59.310467"
       y="275.67981"
       id="text9"><tspan
         sodipodi:role="line"
         id="tspan9"
         style="font-style:normal;font-variant:normal;font-weight:normal;font-stretch:normal;font-size:16.9333px;font-family:Stencil;-inkscape-font-specification:'Stencil, Normal';font-variant-ligatures:normal;font-variant-caps:normal;font-variant-numeric:normal;font-variant-east-asian:normal;letter-spacing:1.32292px;fill:#ffffff;fill-opacity:1;stroke:none;stroke-width:2"
         x="59.310467"
         y="275.67981">Fianarantsoa 2024</tspan></text>
    <text
       xml:space="preserve"
       style="font-style:normal;font-variant:normal;font-weight:normal;font-stretch:normal;font-size:113.633px;line-height:0;font-family:'Ink Free';-inkscape-font-specification:'Ink Free, Normal';font-variant-ligatures:normal;font-variant-caps:normal;font-variant-numeric:normal;font-variant-east-asian:normal;letter-spacing:0px;fill:#ffffff;stroke:#ffffff;stroke-width:2.321;stroke-linecap:round;stroke-linejoin:round;stroke-opacity:1;stroke-dasharray:none"
       x="169.08018"
       y="114.11128"
       id="text10"
       transform="scale(0.67715737,1.4767616)"><tspan
         sodipodi:role="line"
         id="tspan10"
         style="font-size:113.633px;stroke-width:2.321;stroke-dasharray:none"
         x="169.08018"
         y="114.11128">otM</tspan></text>
    <text
       xml:space="preserve"
       style="font-style:normal;font-variant:normal;font-weight:normal;font-stretch:normal;font-size:16.9333px;line-height:0;font-family:Stencil;-inkscape-font-specification:'Stencil, Normal';font-variant-ligatures:normal;font-variant-caps:normal;font-variant-numeric:normal;font-variant-east-asian:normal;letter-spacing:1.32292px;fill:#ffffff;fill-opacity:1;stroke:#ffffff;stroke-width:2.955;stroke-linecap:round;stroke-linejoin:round;stroke-dasharray:none;stroke-dashoffset:0;stroke-opacity:1"
       x="32.353931"
       y="240.63159"
       id="text11"><tspan
         sodipodi:role="line"
         id="tspan11"
         style="stroke-width:2.955"
         x="32.353931"
         y="240.63159" /></text>
    <text
       xml:space="preserve"
       style="font-style:normal;font-variant:normal;font-weight:normal;font-stretch:normal;font-size:23.8391px;line-height:0;font-family:Stencil;-inkscape-font-specification:'Stencil, Normal';font-variant-ligatures:normal;font-variant-caps:normal;font-variant-numeric:normal;font-variant-east-asian:normal;letter-spacing:1.86244px;fill:#ffffff;fill-opacity:1;stroke:none;stroke-width:4.16012;stroke-linecap:round;stroke-linejoin:round;stroke-dasharray:none;stroke-dashoffset:0;stroke-opacity:1"
       x="33.999783"
       y="274.38699"
       id="text12"><tspan
         sodipodi:role="line"
         id="tspan12"
         style="stroke:none;stroke-width:4.16012"
         x="33.999783"
         y="274.38699">ï…</tspan></text>
    <text
       xml:space="preserve"
       style="font-style:normal;font-variant:normal;font-weight:normal;font-stretch:normal;font-size:16.9333px;line-height:0;font-family:Stencil;-inkscape-font-specification:'Stencil, Normal';font-variant-ligatures:normal;font-variant-caps:normal;font-variant-numeric:normal;font-variant-east-asian:normal;letter-spacing:2.64583px;word-spacing:7.9375px;fill:#ffffff;fill-opacity:1;stroke:none;stroke-width:1;stroke-linecap:round;stroke-linejoin:round;stroke-dasharray:none;stroke-dashoffset:0;stroke-opacity:1"
       x="28.193344"
       y="199.69496"
       id="text13"><tspan
         sodipodi:role="line"
         id="tspan13"
         style="font-style:normal;font-variant:normal;font-weight:normal;font-stretch:normal;font-size:16.9333px;font-family:'Ink Free';-inkscape-font-specification:'Ink Free, Normal';font-variant-ligatures:normal;font-variant-caps:normal;font-variant-numeric:normal;font-variant-east-asian:normal;letter-spacing:2.64583px;word-spacing:7.9375px;stroke:#ffffff;stroke-width:1;stroke-dasharray:none;stroke-opacity:1"
         x="28.193344"
         y="199.69496"
         dx="0">STATE OF THE MAP</tspan></text>
  </g>
</svg>
